<?xml version="1.0" standalone="no"?>
<!DOCTYPE svg PUBLIC "-//W3C//DTD SVG 20010904//EN"
 "http://www.w3.org/TR/2001/REC-SVG-20010904/DTD/svg10.dtd">
<svg version="1.0" xmlns="http://www.w3.org/2000/svg"
 viewBox="0 0 2600.000000 2600.000000"
 preserveAspectRatio="xMidYMid meet">
<metadata>
Created by potrace 1.15, written by Peter Selinger 2001-2017
</metadata>
<g transform="translate(0.000000,2600.000000) scale(0.100000,-0.100000)"
fill="#000000" stroke="none">
<path d="M13300 21969 c-1034 -59 -2042 -300 -2984 -711 -209 -91 -648 -314
-836 -424 -712 -417 -1272 -852 -1845 -1435 -386 -392 -686 -759 -990 -1208
-865 -1279 -1355 -2730 -1455 -4306 -13 -206 -13 -794 0 -1000 75 -1180 359
-2260 870 -3300 553 -1127 1385 -2155 2385 -2947 727 -576 1553 -1033 2435
-1350 972 -348 1984 -513 3040 -495 698 12 1309 93 1965 259 2040 516 3824
1769 5008 3518 370 547 670 1122 907 1738 504 1312 677 2753 500 4160 -281
2227 -1423 4251 -3190 5654 -1070 849 -2310 1424 -3651 1692 -339 68 -682 115
-1074 146 -175 15 -892 21 -1085 9z m-1939 -3900 c696 -54 1275 -282 1769
-697 195 -163 425 -421 577 -644 l66 -96 85 120 c394 552 878 928 1466 1140
215 77 444 130 711 165 110 14 209 18 460 18 409 0 610 -23 929 -105 580 -148
1064 -462 1439 -932 513 -644 761 -1486 717 -2426 -33 -686 -149 -1137 -447
-1732 -249 -500 -572 -971 -1033 -1510 -585 -683 -1390 -1440 -2312 -2173
-151 -120 -841 -634 -1460 -1087 l-347 -254 -213 3 -213 3 -305 226 c-168 124
-541 400 -830 612 -744 546 -1204 920 -1800 1464 -220 201 -676 652 -860 851
-722 780 -1247 1561 -1523 2265 -142 362 -201 600 -254 1030 -25 207 -25 774
0 980 84 689 304 1242 691 1739 333 427 786 740 1311 904 228 72 503 120 795
140 115 8 459 6 581 -4z"/>
</g>
</svg>
